<svg width="155" height="152" viewBox="0 0 155 152" fill="none" xmlns="http://www.w3.org/2000/svg">
<circle cx="76.9094" cy="76.3406" r="68.7903" fill="#284B33"/>
<path d="M45.6699 5.72001C43.8599 7.16001 42.2399 8.42001 40.8399 9.48001C38.1099 11.55 34.6299 12.87 30.6799 13.71C29.0999 14.81 27.5799 15.96 26.1099 17.17C32.5199 16.45 38.1499 14.87 42.4499 11.61C45.1899 9.53001 48.7899 6.69001 52.9399 3.26001C50.4499 3.97001 48.0199 4.79001 45.6699 5.72001Z" fill="#F2D5AD"/>
<path d="M13.5901 30.65C28.1601 30.56 41.8201 29.24 50.4801 22.69C56.8801 17.84 67.4301 9.7 79.1801 0.02C78.4901 0.01 77.8001 0 77.1101 0C76.4201 0 75.6701 0 74.9601 0.02C64.2601 8.76 54.7801 16.07 48.8501 20.55C41.1901 26.34 28.9101 27.76 15.5801 27.95C14.8901 28.83 14.2301 29.73 13.5801 30.64L13.5901 30.65Z" fill="#F2D5AD"/>
<path d="M95.5198 1.84998C81.3398 13.18 68.3798 22.95 60.2598 29.08C58.9998 30.03 57.8698 30.88 56.8798 31.64C45.9298 39.93 27.1498 41.04 7.54984 40.97C7.12984 41.85 6.71984 42.73 6.33984 43.63C7.27984 43.63 8.22984 43.65 9.16984 43.65C28.6398 43.65 47.2098 42.32 58.4998 33.78C59.4898 33.03 60.6198 32.18 61.8798 31.23C70.3298 24.86 83.9998 14.55 98.8498 2.62998C97.7498 2.34998 96.6498 2.09998 95.5298 1.86998L95.5198 1.84998Z" fill="#F2D5AD"/>
<path d="M111.03 55.96C107.53 52.59 97.2501 50.88 80.4701 50.88H3.65012C3.37012 51.76 3.12012 52.65 2.87012 53.55H80.4801C95.8601 53.55 106.32 55.13 109.18 57.88C110.79 59.43 110.73 60.01 110.72 60.07C110.59 60.77 108.02 61.84 105.95 62.7C100.84 64.82 93.1101 68.03 87.0501 76.2C79.5001 86.38 71.6501 88.84 64.0701 91.22C60.2501 92.42 56.3001 93.66 52.5001 95.85C46.6701 99.2 43.4701 102.62 42.4201 106.59C41.4601 110.23 42.3601 114.27 45.2601 119.3C46.4001 121.27 46.5901 122.94 45.8401 124.39C44.0001 127.94 36.8901 130.81 24.2701 133.06C25.1301 133.82 26.0201 134.57 26.9201 135.29C39.3001 132.88 46.0801 129.74 48.2101 125.62C49.3901 123.33 49.1801 120.75 47.5701 117.97C45.0501 113.59 44.2301 110.2 45.0001 107.29C45.8501 104.1 48.7401 101.12 53.8301 98.18C57.3801 96.14 61.0201 95 64.8701 93.79C72.8601 91.28 81.1201 88.69 89.2001 77.82C94.8201 70.25 102.13 67.21 106.98 65.2C110.57 63.71 112.95 62.72 113.35 60.6C113.69 58.81 112.29 57.19 111.04 55.98L111.03 55.96Z" fill="#F2D5AD"/>
<path d="M23.8398 60.27C16.3898 60.49 8.79982 60.72 1.24982 60.84C1.08982 61.73 0.949824 62.62 0.819824 63.52C8.54982 63.4 16.3098 63.17 23.9198 62.94C49.2298 62.18 75.3998 61.39 78.8598 66.75C79.1598 67.21 79.4698 68.01 78.7198 69.54C77.0498 72.94 68.3298 78.23 58.4298 81.83C44.4398 86.92 32.3598 91.32 29.6098 99.1C28.3798 102.58 29.0698 106.39 31.6998 110.76C33.8598 114.34 34.4998 116.94 33.6398 118.71C32.0898 121.91 25.5798 123.29 16.1898 124.58C16.8498 125.4 17.5298 126.2 18.2198 126.99C27.7798 125.6 34.0598 123.98 36.0498 119.87C37.3498 117.19 36.6898 113.85 33.9898 109.37C31.7898 105.73 31.1798 102.66 32.1298 99.99C34.4598 93.39 45.9898 89.2 59.3398 84.34C68.4898 81.01 78.7698 75.51 81.1198 70.71C82.3598 68.18 81.7998 66.37 81.1098 65.3C77.0398 58.99 56.6998 59.28 23.8498 60.27H23.8398Z" fill="#F2D5AD"/>
<path d="M14.25 75.93C14.37 76.12 14.72 76.69 13.98 78.08C11.03 83.66 6.78 88.03 1.28 91.16C1.44 92.09 1.62 93.01 1.81 93.92C8.12 90.52 12.99 85.65 16.34 79.33C17.54 77.06 17.1 75.47 16.53 74.53C14.66 71.49 8.67 70.72 0.12 70.65C0.07 71.53 0.03 72.42 0 73.32C6.54 73.37 12.98 73.87 14.25 75.93Z" fill="#F2D5AD"/>
<path d="M35.9201 78.71C33.1201 79.35 29.9601 80.08 26.7501 81C13.6201 84.8 14.5201 94.26 15.2501 101.86C15.8301 107.97 15.9701 111.49 11.9801 112.84C11.2701 113.08 10.2101 113.28 8.8501 113.43C9.3001 114.28 9.7701 115.11 10.2501 115.94C11.2801 115.79 12.1601 115.6 12.8401 115.37C19.0201 113.28 18.4601 107.34 17.9101 101.6C17.2201 94.3 16.5001 86.75 27.5001 83.56C30.6301 82.65 33.6201 81.97 36.5201 81.3C45.2001 79.31 52.0501 77.74 52.9901 71.9L50.3501 71.48C49.7301 75.36 44.7201 76.69 35.9201 78.7V78.71Z" fill="#F2D5AD"/>
<path d="M67.6002 105.31L66.1402 103.07C66.0502 103.13 57.1502 109.12 64.5202 120.45C65.7302 122.32 65.8602 124.27 64.9002 126.42C62.1802 132.49 51.3402 138.85 38.1802 142.63C39.3302 143.24 40.5002 143.81 41.6902 144.36C54.3902 140.27 64.5002 133.87 67.3402 127.51C68.6602 124.55 68.4702 121.61 66.7702 118.99C60.8802 109.94 67.3402 105.48 67.6102 105.3L67.6002 105.31Z" fill="#F2D5AD"/>
<path d="M118.31 75.4199C119.81 74.8099 121.32 74.2099 122.85 73.5999C133.67 69.2599 144.77 64.8199 152.74 59.5099C152.56 58.5599 152.36 57.6199 152.14 56.6899C144.39 62.0899 132.97 66.6699 121.85 71.1199C108.98 76.2799 96.82 81.1499 90.79 87.0899C84.14 93.6499 81.13 104.61 77.64 117.3C74.74 127.87 71.48 139.7 65.52 151.07C66.47 151.19 67.42 151.29 68.38 151.38C74.16 140.06 77.36 128.43 80.22 118.01C83.6 105.69 86.53 95.0499 92.67 88.9899C97.63 84.0999 107.44 79.8199 118.3 75.4199" fill="#F2D5AD"/>
<path d="M144.68 80.32C128.25 84.51 105.74 90.26 99.9998 101.67C96.0998 109.43 92.0798 122.8 88.1898 135.73C86.4698 141.46 84.8298 146.92 83.2798 151.58C84.2498 151.52 85.2098 151.43 86.1698 151.34C87.6198 146.89 89.1498 141.8 90.7498 136.49C94.5998 123.67 98.5898 110.41 102.39 102.86C107.58 92.54 129.41 86.97 145.34 82.9C148.64 82.06 151.6 81.3 154.15 80.58C154.2 79.65 154.23 78.71 154.25 77.77C151.53 78.57 148.24 79.41 144.68 80.32Z" fill="#F2D5AD"/>
<path d="M113.89 109.27C106.32 117.11 101.67 140.22 100.15 148.83C101.12 148.57 102.08 148.3 103.02 148C104.71 138.8 109.16 118.01 115.8 111.13C123.88 102.76 136.83 100.76 147.23 99.15C148.64 98.93 149.98 98.72 151.26 98.51C151.52 97.57 151.77 96.62 152 95.67C150.41 95.96 148.67 96.23 146.83 96.51C136.6 98.09 122.59 100.25 113.88 109.27H113.89Z" fill="#F2D5AD"/>
<path d="M126.43 120.46C122.31 125.15 120.06 130.61 118.22 141.43C119.25 140.84 120.27 140.22 121.26 139.59C122.92 130.84 124.96 126.17 128.43 122.22C132.6 117.47 140.31 114.43 145.7 112.77C146.25 111.7 146.78 110.62 147.28 109.52C141.76 111.01 131.73 114.41 126.42 120.46H126.43Z" fill="#F2D5AD"/>
<path d="M148.15 44.23C138.5 50.63 128.73 51.99 115.1 46.05C108.12 43 93.86 41.6 85.98 41.03C77.13 40.39 75.66 38.47 75.44 37.68C75.18 36.73 75.62 33.77 85.44 26.88C89.46 24.06 93.88 21.24 98.57 18.26C103.83 14.92 109.14 11.53 113.95 8.09005C113.03 7.64005 112.1 7.21005 111.16 6.80005C106.74 9.90005 101.92 12.97 97.14 16.01C92.43 19.01 87.99 21.84 83.91 24.69C75.32 30.72 71.91 34.94 72.87 38.39C73.71 41.44 77.82 43.12 85.79 43.69C98.9 44.63 109.2 46.3801 114.03 48.4901C120.34 51.2401 125.91 52.51 131.04 52.51C137.61 52.51 143.44 50.4301 149.15 46.7401C148.83 45.8901 148.49 45.0501 148.14 44.2201L148.15 44.23Z" fill="#F2D5AD"/>
<path d="M145.69 38.96C145.27 38.15 144.84 37.36 144.4 36.57C137.94 40 131.9 39.89 123.72 36.87C118.43 34.92 109.19 34 104.15 33.63C98.8199 33.24 98.0399 31.89 97.9299 31.49C97.8199 31.07 97.6399 28.72 105.4 23.28C108.18 21.33 111.24 19.38 114.48 17.32C116.95 15.75 119.44 14.16 121.83 12.56C121.01 12.03 120.18 11.51 119.34 11.01C117.25 12.39 115.12 13.75 113.05 15.07C109.78 17.15 106.7 19.11 103.87 21.1C97.3399 25.68 94.5599 29.31 95.3599 32.21C96.0099 34.59 98.8299 35.93 103.96 36.31C112.29 36.93 119.16 38.05 122.8 39.39C127.27 41.04 131.15 41.81 134.67 41.81C138.7 41.81 142.26 40.81 145.7 38.98L145.69 38.96Z" fill="#F2D5AD"/>
<path d="M140.93 31.06C140.33 30.2 139.72 29.36 139.08 28.53C137.09 28.6 135.01 28.2 132.37 27.69C129.74 27.18 126.46 26.55 122.3 26.22C120.77 26.1 120.26 25.7 120.2 25.49C120.03 24.88 121.07 22.65 125.33 19.66C126.34 18.95 127.42 18.25 128.54 17.52C127.82 16.92 127.09 16.33 126.34 15.76C125.46 16.33 124.6 16.91 123.79 17.47C121.63 18.98 116.71 22.86 117.62 26.19C117.92 27.28 118.93 28.63 122.08 28.88C126.09 29.2 129.15 29.79 131.85 30.31C134.42 30.81 136.58 31.22 138.69 31.22C139.43 31.22 140.17 31.16 140.91 31.05L140.93 31.06Z" fill="#F2D5AD"/>
</svg>
