<?xml version="1.0" encoding="UTF-8"?>
<svg id="Camada_2" data-name="Camada 2" xmlns="http://www.w3.org/2000/svg" viewBox="0 0 453.95 205.7">
  <defs>
    <style>
      .cls-1 {
        fill: #f2d5ad;
        stroke-width: 0px;
      }
    </style>
  </defs>
  <g id="OPCAO_1" data-name="OPCAO 1">
    <g>
      <g>
        <g>
          <g>
            <path class="cls-1" d="M350.65,3.99c2.02,1.11,4.42,2.22,7,3.2,6.51,2.47,13.34,3.89,18.74,3.89v2.67c-10.69,0-24.38-4.98-30.74-9.76h4.99Z"/>
            <path class="cls-1" d="M328.41,6.29c3.44,7.95,20.34,12.09,37.05,12.09,9.94,0,18.16,2.38,23.77,6.87,5.53,4.44,8.46,10.81,8.46,18.43h-2.67c0-14.17-11.05-22.63-29.55-22.63-9.75,0-19.41-1.42-26.5-3.89-4.69-1.64-8.22-3.71-10.56-6.15v-4.72Z"/>
            <path class="cls-1" d="M328.41,20.62c.41,1.01,1.08,2.16,2.18,3.28,3.03,3.08,8.1,4.64,15.06,4.64,1.05,0,2.1,0,3.16-.01,10.53-.06,21.42-.11,26.94,5.38,2.4,2.39,3.62,5.68,3.62,9.78h-2.67c0-3.41-.93-5.99-2.83-7.89-4.73-4.71-15.06-4.65-25.04-4.6-1.06,0-2.12.01-3.17.01-7.74,0-13.47-1.85-17.02-5.49-.08-.08-.14-.16-.21-.23v-4.86Z"/>
            <path class="cls-1" d="M385.74,48.55h30.33s0,2.67,0,2.67h-30.33c-12.87,0-19.4,4.9-19.4,14.57v83.02s-2.67,0-2.67,0v-83.02c0-11.12,7.84-17.24,22.07-17.24Z"/>
            <path class="cls-1" d="M384.34,67.12c5.42-4.98,15.76-5.25,31.73-3.94v2.68c-15.35-1.26-25.19-1.12-29.92,3.23-2.56,2.35-3.75,6.1-3.75,11.79v67.92s-2.67,0-2.67,0v-67.92c0-6.49,1.47-10.87,4.61-13.76Z"/>
            <path class="cls-1" d="M416.07,87.09v2.67c-1.27,0-2.37.1-3.2.94-1.34,1.34-2.03,4.52-2.03,9.46v48.64s-2.67,0-2.67,0v-48.64c0-5.83.89-9.43,2.81-11.35,1.56-1.56,3.46-1.71,5.09-1.72Z"/>
            <path class="cls-1" d="M416.07,76.13v2.67c-8.27-.33-13.11.59-15.62,2.99-1.94,1.85-2.76,4.78-2.76,9.81v57.2s-2.67,0-2.67,0v-57.2c0-5.83,1.07-9.34,3.59-11.74,3.1-2.96,8.36-4.09,17.47-3.73Z"/>
          </g>
          <path class="cls-1" d="M401.8,34.9l2.67-.18c-.65-9.6-7.27-23.13-17.72-30.73h-4.76c11.65,7.35,19.16,21.17,19.82,30.91Z"/>
          <path class="cls-1" d="M406.74,3.99c-.74,10.67,4.17,23.85,4.41,24.46l2.5-.94c-.05-.14-4.99-13.4-4.22-23.52h-2.68Z"/>
          <path class="cls-1" d="M432.35,3.99h-3.26c-1.21,1.89-2.49,4.18-3.67,6.87-3.31,7.53-6.39,19.69-2.83,35.42h2.76c-4.92-20.84,2.26-35.43,7-42.29Z"/>
          <path class="cls-1" d="M447.95,3.99h-3.28c-9.71,14.15-11.73,31.17-9.4,42.29h2.73c-2.49-10.9-.43-28.27,9.95-42.29Z"/>
          <path class="cls-1" d="M450.75,28.74v-8.64c-2.01,4.26-4.87,13.01-3.11,26.17h2.7c-1-7.25-.53-13.11.41-17.53Z"/>
        </g>
        <g>
          <path class="cls-1" d="M45.67,5.72c-1.81,1.44-3.43,2.7-4.83,3.76-2.73,2.07-6.21,3.39-10.16,4.23-1.58,1.1-3.1,2.25-4.57,3.46,6.41-.72,12.04-2.3,16.34-5.56,2.74-2.08,6.34-4.92,10.49-8.35-2.49.71-4.92,1.53-7.27,2.46Z"/>
          <path class="cls-1" d="M13.59,30.65c14.57-.09,28.23-1.41,36.89-7.96C56.88,17.84,67.43,9.7,79.18.02c-.69-.01-1.38-.02-2.07-.02s-1.44,0-2.15.02c-10.7,8.74-20.18,16.05-26.11,20.53-7.66,5.79-19.94,7.21-33.27,7.4-.69.88-1.35,1.78-2,2.69Z"/>
          <path class="cls-1" d="M95.52,1.85c-14.18,11.33-27.14,21.1-35.26,27.23-1.26.95-2.39,1.8-3.38,2.56-10.95,8.29-29.73,9.4-49.33,9.33-.42.88-.83,1.76-1.21,2.66.94,0,1.89.02,2.83.02,19.47,0,38.04-1.33,49.33-9.87.99-.75,2.12-1.6,3.38-2.55,8.45-6.37,22.12-16.68,36.97-28.6-1.1-.28-2.2-.53-3.32-.76Z"/>
          <path class="cls-1" d="M111.03,55.96c-3.5-3.37-13.78-5.08-30.56-5.08H3.65c-.28.88-.53,1.77-.78,2.67h77.61c15.38,0,25.84,1.58,28.7,4.33,1.61,1.55,1.55,2.13,1.54,2.19-.13.7-2.7,1.77-4.77,2.63-5.11,2.12-12.84,5.33-18.9,13.5-7.55,10.18-15.4,12.64-22.98,15.02-3.82,1.2-7.77,2.44-11.57,4.63-5.83,3.35-9.03,6.77-10.08,10.74-.96,3.64-.06,7.68,2.84,12.71,1.14,1.97,1.33,3.64.58,5.09-1.84,3.55-8.95,6.42-21.57,8.67.86.76,1.75,1.51,2.65,2.23,12.38-2.41,19.16-5.55,21.29-9.67,1.18-2.29.97-4.87-.64-7.65-2.52-4.38-3.34-7.77-2.57-10.68.85-3.19,3.74-6.17,8.83-9.11,3.55-2.04,7.19-3.18,11.04-4.39,7.99-2.51,16.25-5.1,24.33-15.97,5.62-7.57,12.93-10.61,17.78-12.62,3.59-1.49,5.97-2.48,6.37-4.6.34-1.79-1.06-3.41-2.31-4.62Z"/>
          <path class="cls-1" d="M23.84,60.27c-7.45.22-15.04.45-22.59.57-.16.89-.3,1.78-.43,2.68,7.73-.12,15.49-.35,23.1-.58,25.31-.76,51.48-1.55,54.94,3.81.3.46.61,1.26-.14,2.79-1.67,3.4-10.39,8.69-20.29,12.29-13.99,5.09-26.07,9.49-28.82,17.27-1.23,3.48-.54,7.29,2.09,11.66,2.16,3.58,2.8,6.18,1.94,7.95-1.55,3.2-8.06,4.58-17.45,5.87.66.82,1.34,1.62,2.03,2.41,9.56-1.39,15.84-3.01,17.83-7.12,1.3-2.68.64-6.02-2.06-10.5-2.2-3.64-2.81-6.71-1.86-9.38,2.33-6.6,13.86-10.79,27.21-15.65,9.15-3.33,19.43-8.83,21.78-13.63,1.24-2.53.68-4.34-.01-5.41-4.07-6.31-24.41-6.02-57.26-5.03Z"/>
          <path class="cls-1" d="M14.25,75.93c.12.19.47.76-.27,2.15-2.95,5.58-7.2,9.95-12.7,13.08.16.93.34,1.85.53,2.76,6.31-3.4,11.18-8.27,14.53-14.59,1.2-2.27.76-3.86.19-4.8-1.87-3.04-7.86-3.81-16.41-3.88-.05.88-.09,1.77-.12,2.67,6.54.05,12.98.55,14.25,2.61Z"/>
          <path class="cls-1" d="M35.92,78.71c-2.8.64-5.96,1.37-9.17,2.29-13.13,3.8-12.23,13.26-11.5,20.86.58,6.11.72,9.63-3.27,10.98-.71.24-1.77.44-3.13.59.45.85.92,1.68,1.4,2.51,1.03-.15,1.91-.34,2.59-.57,6.18-2.09,5.62-8.03,5.07-13.77-.69-7.3-1.41-14.85,9.59-18.04,3.13-.91,6.12-1.59,9.02-2.26,8.68-1.99,15.53-3.56,16.47-9.4l-2.64-.42c-.62,3.88-5.63,5.21-14.43,7.22Z"/>
          <path class="cls-1" d="M67.6,105.31l-1.46-2.24c-.09.06-8.99,6.05-1.62,17.38,1.21,1.87,1.34,3.82.38,5.97-2.72,6.07-13.56,12.43-26.72,16.21,1.15.61,2.32,1.18,3.51,1.73,12.7-4.09,22.81-10.49,25.65-16.85,1.32-2.96,1.13-5.9-.57-8.52-5.89-9.05.57-13.51.84-13.69Z"/>
          <path class="cls-1" d="M118.31,75.42c1.5-.61,3.01-1.21,4.54-1.82,10.82-4.34,21.92-8.78,29.89-14.09-.18-.95-.38-1.89-.6-2.82-7.75,5.4-19.17,9.98-30.29,14.43-12.87,5.16-25.03,10.03-31.06,15.97-6.65,6.56-9.66,17.52-13.15,30.21-2.9,10.57-6.16,22.4-12.12,33.77.95.12,1.9.22,2.86.31,5.78-11.32,8.98-22.95,11.84-33.37,3.38-12.32,6.31-22.96,12.45-29.02,4.96-4.89,14.77-9.17,25.63-13.57"/>
          <path class="cls-1" d="M144.68,80.32c-16.43,4.19-38.94,9.94-44.68,21.35-3.9,7.76-7.92,21.13-11.81,34.06-1.72,5.73-3.36,11.19-4.91,15.85.97-.06,1.93-.15,2.89-.24,1.45-4.45,2.98-9.54,4.58-14.85,3.85-12.82,7.84-26.08,11.64-33.63,5.19-10.32,27.02-15.89,42.95-19.96,3.3-.84,6.26-1.6,8.81-2.32.05-.93.08-1.87.1-2.81-2.72.8-6.01,1.64-9.57,2.55Z"/>
          <path class="cls-1" d="M113.89,109.27c-7.57,7.84-12.22,30.95-13.74,39.56.97-.26,1.93-.53,2.87-.83,1.69-9.2,6.14-29.99,12.78-36.87,8.08-8.37,21.03-10.37,31.43-11.98,1.41-.22,2.75-.43,4.03-.64.26-.94.51-1.89.74-2.84-1.59.29-3.33.56-5.17.84-10.23,1.58-24.24,3.74-32.95,12.76Z"/>
          <path class="cls-1" d="M126.43,120.46c-4.12,4.69-6.37,10.15-8.21,20.97,1.03-.59,2.05-1.21,3.04-1.84,1.66-8.75,3.7-13.42,7.17-17.37,4.17-4.75,11.88-7.79,17.27-9.45.55-1.07,1.08-2.15,1.58-3.25-5.52,1.49-15.55,4.89-20.86,10.94Z"/>
          <path class="cls-1" d="M148.15,44.23c-9.65,6.4-19.42,7.76-33.05,1.82-6.98-3.05-21.24-4.45-29.12-5.02-8.85-.64-10.32-2.56-10.54-3.35-.26-.95.18-3.91,10-10.8,4.02-2.82,8.44-5.64,13.13-8.62,5.26-3.34,10.57-6.73,15.38-10.17-.92-.45-1.85-.88-2.79-1.29-4.42,3.1-9.24,6.17-14.02,9.21-4.71,3-9.15,5.83-13.23,8.68-8.59,6.03-12,10.25-11.04,13.7.84,3.05,4.95,4.73,12.92,5.3,13.11.94,23.41,2.69,28.24,4.8,6.31,2.75,11.88,4.02,17.01,4.02,6.57,0,12.4-2.08,18.11-5.77-.32-.85-.66-1.69-1.01-2.52Z"/>
          <path class="cls-1" d="M145.69,38.96c-.42-.81-.85-1.6-1.29-2.39-6.46,3.43-12.5,3.32-20.68.3-5.29-1.95-14.53-2.87-19.57-3.24-5.33-.39-6.11-1.74-6.22-2.14-.11-.42-.29-2.77,7.47-8.21,2.78-1.95,5.84-3.9,9.08-5.96,2.47-1.57,4.96-3.16,7.35-4.76-.82-.53-1.65-1.05-2.49-1.55-2.09,1.38-4.22,2.74-6.29,4.06-3.27,2.08-6.35,4.04-9.18,6.03-6.53,4.58-9.31,8.21-8.51,11.11.65,2.38,3.47,3.72,8.6,4.1,8.33.62,15.2,1.74,18.84,3.08,4.47,1.65,8.35,2.42,11.87,2.42,4.03,0,7.59-1,11.03-2.83Z"/>
          <path class="cls-1" d="M140.93,31.06c-.6-.86-1.21-1.7-1.85-2.53-1.99.07-4.07-.33-6.71-.84-2.63-.51-5.91-1.14-10.07-1.47-1.53-.12-2.04-.52-2.1-.73-.17-.61.87-2.84,5.13-5.83,1.01-.71,2.09-1.41,3.21-2.14-.72-.6-1.45-1.19-2.2-1.76-.88.57-1.74,1.15-2.55,1.71-2.16,1.51-7.08,5.39-6.17,8.72.3,1.09,1.31,2.44,4.46,2.69,4.01.32,7.07.91,9.77,1.43,2.57.5,4.73.91,6.84.91.74,0,1.48-.06,2.22-.17Z"/>
        </g>
        <g>
          <path class="cls-1" d="M177.46,15.71v3.22c5.76-3.08,8.13-12.53,8.62-14.94h-2.74c-.54,2.27-2.35,8.75-5.88,11.72Z"/>
          <path class="cls-1" d="M177.46,25.83v2.73c17.99-3.15,26.77-19.68,29-24.57h-2.96c-2.69,5.46-10.76,18.92-26.05,21.84Z"/>
          <path class="cls-1" d="M224.69,3.99c-3.48,6.08-17.89,27.81-47.24,31.22v2.69c18.25-2.04,30.81-10.86,38.23-18.08,7.39-7.19,11.15-14.05,12.06-15.82h-3.05Z"/>
          <path class="cls-1" d="M245.14,3.99c-12.15,17-29.51,37.19-67.68,38.08v2.67c40.7-.91,58.42-22.98,70.96-40.75h-3.28Z"/>
          <path class="cls-1" d="M278.23,3.99c-2.02,1.11-4.42,2.22-7,3.2-6.51,2.47-13.34,3.89-18.74,3.89v2.67c10.69,0,24.38-4.98,30.74-9.76h-4.99Z"/>
          <path class="cls-1" d="M300.47,6.29c-3.44,7.95-20.34,12.09-37.05,12.09-9.94,0-18.16,2.38-23.77,6.87-5.53,4.44-8.46,10.81-8.46,18.43h2.67c0-14.17,11.05-22.63,29.55-22.63,9.75,0,19.41-1.42,26.5-3.89,4.69-1.64,8.22-3.71,10.56-6.15v-4.72Z"/>
          <path class="cls-1" d="M300.47,20.62c-.41,1.01-1.08,2.16-2.18,3.28-3.03,3.08-8.1,4.64-15.06,4.64-1.05,0-2.1,0-3.16-.01-10.53-.06-21.42-.11-26.94,5.38-2.4,2.39-3.62,5.68-3.62,9.78h2.67c0-3.41.93-5.99,2.83-7.89,4.73-4.71,15.06-4.65,25.04-4.6,1.06,0,2.12.01,3.17.01,7.74,0,13.47-1.85,17.02-5.49.08-.08.14-.16.21-.23v-4.86Z"/>
          <path class="cls-1" d="M243.14,48.55h-30.33v2.67h30.33c12.87,0,19.4,4.9,19.4,14.57v83.02h2.67v-83.02c0-11.12-7.84-17.24-22.07-17.24Z"/>
          <path class="cls-1" d="M244.54,67.12c-5.42-4.98-15.76-5.25-31.73-3.94v2.68c15.35-1.26,25.19-1.12,29.92,3.23,2.56,2.35,3.75,6.1,3.75,11.79v67.92h2.67v-67.92c0-6.49-1.47-10.87-4.61-13.76Z"/>
          <path class="cls-1" d="M212.81,87.09v2.67c1.27,0,2.37.1,3.2.94,1.34,1.34,2.03,4.52,2.03,9.46v48.64h2.67v-48.64c0-5.83-.89-9.43-2.81-11.35-1.56-1.56-3.46-1.71-5.09-1.72Z"/>
          <path class="cls-1" d="M212.81,76.13v2.67c8.27-.33,13.11.59,15.62,2.99,1.94,1.85,2.76,4.78,2.76,9.81v57.2h2.67v-57.2c0-5.83-1.07-9.34-3.59-11.74-3.1-2.96-8.36-4.09-17.47-3.73Z"/>
        </g>
      </g>
      <g>
        <path class="cls-1" d="M8.06,201.18c-.99,0-1.92-.19-2.78-.56s-1.6-.89-2.24-1.56c-.64-.67-1.13-1.44-1.49-2.32-.36-.88-.54-1.82-.54-2.83s.18-1.95.53-2.83c.35-.88.85-1.65,1.49-2.31.64-.66,1.39-1.18,2.25-1.55.86-.37,1.78-.56,2.78-.56s1.92.19,2.78.56c.86.37,1.61.89,2.25,1.55.64.66,1.14,1.43,1.5,2.31.36.88.54,1.82.54,2.83s-.18,1.95-.54,2.83c-.36.88-.86,1.65-1.5,2.32s-1.39,1.19-2.25,1.56c-.86.37-1.78.56-2.78.56ZM8.06,199.32c1.01,0,1.89-.25,2.63-.75.75-.5,1.33-1.16,1.74-1.98s.62-1.72.62-2.7-.2-1.9-.61-2.72c-.41-.82-.98-1.48-1.73-1.97-.75-.49-1.63-.74-2.65-.74s-1.89.25-2.63.74c-.75.49-1.32,1.15-1.73,1.97-.41.82-.61,1.73-.61,2.72s.2,1.88.61,2.7c.41.82.98,1.48,1.73,1.98.75.5,1.62.75,2.63.75Z"/>
        <path class="cls-1" d="M19.97,200.83v-13.82h4.41c1.17,0,2.11.2,2.82.6.7.4,1.21.91,1.52,1.53.31.62.47,1.26.47,1.93,0,.88-.21,1.66-.62,2.34-.41.68-1.06,1.18-1.93,1.51l3.23,5.9h-2.24l-2.96-5.66h-2.78v5.66h-1.93ZM21.9,193.5h2.65c.86,0,1.51-.21,1.95-.64.44-.43.66-1,.66-1.72,0-.76-.23-1.35-.7-1.77-.47-.42-1.12-.63-1.95-.63h-2.61v4.76Z"/>
        <path class="cls-1" d="M41,195.53v-1.72h4.85v5.51c-.51.47-1.2.89-2.07,1.27-.87.38-2,.57-3.38.57s-2.68-.31-3.73-.94c-1.05-.63-1.86-1.49-2.43-2.58-.57-1.09-.86-2.32-.86-3.69,0-1.01.17-1.95.5-2.83.33-.88.8-1.65,1.42-2.32.61-.67,1.35-1.19,2.2-1.56.85-.37,1.79-.56,2.83-.56.98,0,1.82.14,2.52.43s1.28.65,1.75,1.07c.47.42.84.83,1.1,1.21l-1.41,1.2c-.22-.32-.5-.64-.85-.97s-.77-.61-1.26-.84c-.5-.23-1.1-.34-1.8-.34-1.01,0-1.88.25-2.62.75-.74.5-1.31,1.16-1.7,1.99-.39.83-.59,1.75-.59,2.75,0,1.06.22,2,.65,2.82.43.82,1.03,1.45,1.78,1.92.75.46,1.61.69,2.58.69.8,0,1.48-.09,2.05-.28.57-.19,1.04-.43,1.43-.74v-2.82h-2.94Z"/>
        <path class="cls-1" d="M49.8,200.83l5.41-13.82h2.03l5.41,13.82h-2.22l-1.43-3.85h-5.68l-1.43,3.85h-2.09ZM53.9,195.3h4.5l-2.24-6.07-2.26,6.07Z"/>
        <path class="cls-1" d="M66.73,200.83v-13.82h2.01l7.54,10.79v-10.79h1.95v13.82h-1.99l-7.56-10.81v10.81h-1.95Z"/>
        <path class="cls-1" d="M83.63,200.83v-13.82h1.99v13.82h-1.99Z"/>
        <path class="cls-1" d="M90.51,200.83v-1.74l8.6-10.32h-8.18v-1.76h10.61v1.76l-8.49,10.3h8.64v1.76h-11.17Z"/>
        <path class="cls-1" d="M105.24,200.83l5.41-13.82h2.03l5.41,13.82h-2.22l-1.43-3.85h-5.68l-1.43,3.85h-2.09ZM109.34,195.3h4.5l-2.24-6.07-2.26,6.07Z"/>
        <path class="cls-1" d="M132,197.25l1.39,1.16c-.21.32-.55.69-1.04,1.13s-1.09.82-1.82,1.14c-.73.32-1.58.49-2.55.49-1.35,0-2.55-.31-3.59-.94-1.04-.63-1.85-1.48-2.43-2.57-.58-1.08-.87-2.31-.87-3.68,0-1.01.17-1.95.5-2.83.33-.88.8-1.65,1.42-2.32.61-.67,1.35-1.19,2.2-1.57.85-.38,1.79-.57,2.83-.57.98,0,1.82.15,2.53.45.7.3,1.29.66,1.75,1.08.46.42.82.83,1.09,1.21l-1.41,1.2c-.22-.32-.5-.64-.84-.97-.34-.33-.76-.61-1.26-.84-.5-.23-1.12-.34-1.83-.34-1.01,0-1.87.25-2.6.75-.73.5-1.28,1.16-1.68,1.98-.39.82-.59,1.74-.59,2.74s.2,1.9.59,2.71c.39.82.95,1.46,1.67,1.94.72.48,1.57.71,2.55.71.83,0,1.51-.13,2.03-.39s.94-.56,1.25-.88c.31-.32.56-.58.74-.78ZM125.6,204.21c.23.08.48.15.75.21s.52.08.79.08c.87,0,1.31-.26,1.31-.79,0-.19-.09-.35-.28-.47-.19-.12-.48-.18-.88-.18-.5,0-.99.08-1.47.25.04-.19.08-.39.11-.59.03-.2.07-.4.09-.59.25-.07.5-.13.77-.19s.6-.08,1.02-.08c.75,0,1.31.18,1.7.54.39.36.58.78.58,1.26,0,.44-.12.81-.37,1.12s-.57.53-.97.68-.84.23-1.31.23c-.59,0-1.07-.05-1.42-.13-.35-.09-.56-.15-.63-.18.04-.19.08-.39.12-.59.04-.2.08-.4.1-.59Z"/>
        <path class="cls-1" d="M136.62,200.83l5.41-13.82h2.03l5.41,13.82h-2.22l-1.43-3.85h-5.68l-1.43,3.85h-2.09ZM139.96,185.48l-.83-1.18c.26-.28.61-.54,1.04-.8.43-.26.9-.38,1.41-.38.43,0,.78.08,1.06.23.28.15.54.3.8.46.26.15.56.23.92.23.4,0,.74-.08,1.02-.24.28-.16.52-.33.75-.53.14.19.28.39.42.59.15.2.29.4.42.61-.26.26-.6.53-1.01.8-.41.27-.88.4-1.41.4-.41,0-.76-.08-1.04-.24-.28-.16-.55-.32-.81-.48-.26-.16-.58-.24-.95-.24-.4,0-.74.08-1.02.24-.28.16-.53.34-.77.53ZM140.72,195.3h4.5l-2.24-6.07-2.26,6.07Z"/>
        <path class="cls-1" d="M159.51,201.18c-.99,0-1.92-.19-2.78-.56-.86-.37-1.6-.89-2.24-1.56-.63-.67-1.13-1.44-1.49-2.32-.36-.88-.54-1.82-.54-2.83s.18-1.95.53-2.83c.35-.88.85-1.65,1.49-2.31.64-.66,1.39-1.18,2.25-1.55.86-.37,1.78-.56,2.78-.56s1.92.19,2.78.56c.86.37,1.61.89,2.25,1.55s1.14,1.43,1.5,2.31c.36.88.54,1.82.54,2.83s-.18,1.95-.54,2.83c-.36.88-.86,1.65-1.5,2.32-.64.67-1.39,1.19-2.25,1.56s-1.78.56-2.78.56ZM159.51,199.32c1.01,0,1.89-.25,2.63-.75s1.33-1.16,1.74-1.98c.41-.82.62-1.72.62-2.7s-.2-1.9-.61-2.72c-.41-.82-.98-1.48-1.73-1.97-.75-.49-1.63-.74-2.65-.74s-1.88.25-2.63.74c-.75.49-1.32,1.15-1.73,1.97-.41.82-.61,1.73-.61,2.72s.2,1.88.61,2.7c.41.82.98,1.48,1.73,1.98s1.62.75,2.63.75Z"/>
        <path class="cls-1" d="M180.52,200.83v-10.61h-4.25v-3.21h12.16v3.21h-4.21v10.61h-3.71Z"/>
        <path class="cls-1" d="M192.26,195.44v-8.43h3.67v8.1c0,.76.18,1.38.53,1.86.35.48.94.73,1.75.73s1.39-.25,1.74-.74c.34-.49.52-1.11.52-1.85v-8.1h3.71v8.43c0,1.17-.26,2.19-.77,3.06-.51.86-1.21,1.53-2.1,1.99-.89.46-1.92.69-3.08.69s-2.19-.23-3.09-.68c-.9-.46-1.6-1.11-2.11-1.98-.51-.86-.77-1.89-.77-3.08Z"/>
        <path class="cls-1" d="M208.84,200.83v-13.82h5.72c1.48,0,2.67.38,3.56,1.15.9.77,1.35,1.9,1.35,3.39,0,.9-.2,1.69-.6,2.36-.4.68-.93,1.22-1.6,1.62l2.96,5.3h-3.94l-2.34-4.7h-1.53v4.7h-3.58ZM212.42,193.25h1.78c.48,0,.88-.15,1.18-.45.3-.3.46-.69.46-1.19,0-.52-.14-.94-.44-1.24-.29-.3-.7-.46-1.22-.46h-1.76v3.34Z"/>
        <path class="cls-1" d="M224.11,200.83v-13.82h3.67v13.82h-3.67Z"/>
        <path class="cls-1" d="M231.38,199.13l2.22-2.67c.39.39.89.74,1.52,1.06.63.32,1.31.48,2.04.48.37,0,.73-.08,1.08-.23.35-.15.52-.44.52-.87,0-.36-.19-.66-.56-.9-.37-.24-.9-.47-1.59-.69l-.77-.25c-.57-.19-1.13-.45-1.69-.78-.56-.32-1.02-.74-1.39-1.25-.37-.51-.55-1.14-.55-1.89,0-.86.2-1.62.61-2.3.41-.68,1.01-1.21,1.81-1.61.8-.39,1.77-.59,2.92-.59.91,0,1.7.1,2.37.31.67.21,1.23.45,1.67.73.44.28.77.53.97.75l-1.86,2.36c-.48-.36-.99-.65-1.51-.88s-1.06-.34-1.62-.34c-.36,0-.7.08-1.03.24-.32.16-.49.43-.49.82,0,.43.19.74.58.93.39.19.88.39,1.47.58l.66.21c.47.14.94.31,1.42.53.48.21.91.49,1.32.82.4.33.72.75.96,1.25.24.5.36,1.12.36,1.85,0,.84-.25,1.59-.76,2.26-.5.66-1.18,1.18-2.03,1.55-.85.37-1.79.56-2.83.56-1.38,0-2.54-.19-3.47-.56-.93-.37-1.72-.86-2.37-1.47Z"/>
        <path class="cls-1" d="M246.71,200.83l.64-13.82h3.5l3.36,6.03,3.29-6.03h3.52l.64,13.82h-3.71l-.33-8.1-2.42,4.72h-2.01l-2.69-4.72-.27,8.1h-3.52Z"/>
        <path class="cls-1" d="M272.77,201.16c-1.04,0-1.99-.18-2.87-.54s-1.64-.87-2.28-1.52c-.64-.66-1.14-1.43-1.5-2.31-.36-.88-.54-1.85-.54-2.9s.18-2.02.54-2.9c.36-.88.86-1.65,1.5-2.3.64-.65,1.4-1.15,2.28-1.51.88-.36,1.83-.54,2.87-.54s1.99.18,2.87.54c.88.36,1.64.86,2.29,1.51.65.65,1.15,1.42,1.5,2.3.35.88.53,1.85.53,2.9s-.18,2.02-.53,2.9c-.35.88-.85,1.65-1.5,2.31-.65.66-1.41,1.16-2.29,1.52s-1.83.54-2.87.54ZM272.77,197.72c.73,0,1.35-.17,1.85-.52.5-.35.89-.81,1.15-1.39s.39-1.22.39-1.93-.13-1.35-.39-1.93-.65-1.04-1.15-1.39c-.5-.34-1.12-.52-1.85-.52s-1.33.17-1.83.52c-.5.35-.89.81-1.16,1.39-.27.58-.4,1.22-.4,1.93s.14,1.35.4,1.93c.27.58.66,1.04,1.16,1.39.5.35,1.12.52,1.83.52Z"/>
        <path class="cls-1" d="M290.17,200.83v-13.82h5.3c1.42,0,2.69.25,3.8.74,1.11.49,1.99,1.25,2.64,2.28.65,1.03.97,2.35.97,3.97,0,1.52-.32,2.79-.97,3.8-.65,1.02-1.54,1.77-2.66,2.28-1.13.5-2.39.76-3.8.76h-5.28ZM293.84,197.6h1.49c1.19,0,2.11-.34,2.78-1.03.66-.68.99-1.57.99-2.66s-.3-2-.91-2.67c-.61-.68-1.56-1.02-2.86-1.02h-1.49v7.38Z"/>
        <path class="cls-1" d="M307.09,200.83v-13.82h9.94v3.17h-6.28v2.13h5.16v2.98h-5.16v2.36h6.71v3.17h-10.38Z"/>
        <path class="cls-1" d="M331.06,200.83v-10.61h-4.25v-3.21h12.16v3.21h-4.21v10.61h-3.71Z"/>
        <path class="cls-1" d="M342.89,200.83v-13.82h5.72c1.48,0,2.67.38,3.56,1.15.9.77,1.35,1.9,1.35,3.39,0,.9-.2,1.69-.6,2.36-.4.68-.93,1.22-1.6,1.62l2.96,5.3h-3.94l-2.34-4.7h-1.53v4.7h-3.58ZM346.47,193.25h1.78c.48,0,.88-.15,1.18-.45.3-.3.46-.69.46-1.19,0-.52-.14-.94-.44-1.24-.29-.3-.7-.46-1.22-.46h-1.76v3.34Z"/>
        <path class="cls-1" d="M357,200.83l5.08-13.82h4.21l4.89,13.82h-3.96l-.89-2.86h-4.62l-.91,2.86h-3.79ZM362.45,195.3h3.13l-1.53-5.08-1.59,5.08Z"/>
        <path class="cls-1" d="M374.75,200.83v-13.82h3.33l5.3,7.71v-7.71h3.63v13.82h-3.13l-5.51-7.93v7.93h-3.63Z"/>
        <path class="cls-1" d="M402.1,195.94l2.46,2.32c-1.55,1.95-3.6,2.92-6.15,2.92-1.41,0-2.65-.31-3.74-.93-1.08-.62-1.93-1.47-2.54-2.56s-.91-2.33-.91-3.74.3-2.66.91-3.76,1.45-1.96,2.53-2.6c1.08-.63,2.33-.95,3.75-.95,1.19,0,2.3.2,3.32.6,1.03.4,1.9,1.1,2.6,2.09l-2.42,2.44c-.39-.52-.85-.95-1.39-1.26-.54-.32-1.15-.48-1.84-.48-.77,0-1.43.17-1.98.51-.55.34-.96.79-1.25,1.37-.29.57-.44,1.22-.44,1.94s.15,1.39.45,1.98.72,1.05,1.27,1.38c.55.33,1.19.5,1.93.5.82,0,1.47-.14,1.97-.43s.99-.73,1.47-1.33Z"/>
        <path class="cls-1" d="M414.44,201.16c-1.04,0-1.99-.18-2.87-.54-.88-.36-1.64-.87-2.28-1.52-.64-.66-1.14-1.43-1.5-2.31-.36-.88-.54-1.85-.54-2.9s.18-2.02.54-2.9c.36-.88.86-1.65,1.5-2.3.64-.65,1.4-1.15,2.28-1.51.88-.36,1.83-.54,2.87-.54s1.99.18,2.87.54c.88.36,1.64.86,2.29,1.51.65.65,1.15,1.42,1.5,2.3.35.88.53,1.85.53,2.9s-.18,2.02-.53,2.9c-.35.88-.85,1.65-1.5,2.31-.65.66-1.41,1.16-2.29,1.52s-1.83.54-2.87.54ZM414.44,197.72c.73,0,1.35-.17,1.85-.52.5-.35.89-.81,1.15-1.39s.39-1.22.39-1.93-.13-1.35-.39-1.93-.65-1.04-1.15-1.39c-.5-.34-1.12-.52-1.85-.52s-1.33.17-1.83.52c-.5.35-.89.81-1.16,1.39-.27.58-.4,1.22-.4,1.93s.14,1.35.4,1.93c.27.58.66,1.04,1.16,1.39.5.35,1.12.52,1.83.52Z"/>
        <path class="cls-1" d="M424.49,199.13l2.22-2.67c.39.39.89.74,1.52,1.06.63.32,1.31.48,2.04.48.37,0,.73-.08,1.08-.23.35-.15.52-.44.52-.87,0-.36-.19-.66-.56-.9-.37-.24-.9-.47-1.59-.69l-.77-.25c-.57-.19-1.13-.45-1.69-.78-.56-.32-1.02-.74-1.39-1.25-.37-.51-.55-1.14-.55-1.89,0-.86.2-1.62.61-2.3.41-.68,1.01-1.21,1.81-1.61.8-.39,1.77-.59,2.92-.59.91,0,1.7.1,2.37.31.67.21,1.23.45,1.67.73.44.28.77.53.97.75l-1.86,2.36c-.48-.36-.99-.65-1.51-.88s-1.06-.34-1.62-.34c-.36,0-.7.08-1.03.24-.32.16-.49.43-.49.82,0,.43.19.74.58.93.39.19.88.39,1.47.58l.66.21c.47.14.94.31,1.42.53.48.21.91.49,1.32.82.4.33.72.75.96,1.25.24.5.36,1.12.36,1.85,0,.84-.25,1.59-.76,2.26-.5.66-1.18,1.18-2.03,1.55-.85.37-1.79.56-2.83.56-1.38,0-2.54-.19-3.47-.56-.93-.37-1.72-.86-2.37-1.47Z"/>
        <path class="cls-1" d="M446.76,201.16c-1.04,0-1.99-.18-2.87-.54s-1.64-.87-2.28-1.52c-.64-.66-1.14-1.43-1.5-2.31-.36-.88-.54-1.85-.54-2.9s.18-2.02.54-2.9c.36-.88.86-1.65,1.5-2.3.64-.65,1.4-1.15,2.28-1.51.88-.36,1.83-.54,2.87-.54s1.99.18,2.87.54c.88.36,1.64.86,2.29,1.51.65.65,1.15,1.42,1.5,2.3.35.88.53,1.85.53,2.9s-.18,2.02-.53,2.9c-.35.88-.85,1.65-1.5,2.31-.65.66-1.41,1.16-2.29,1.52s-1.83.54-2.87.54ZM446.76,197.72c.73,0,1.35-.17,1.85-.52.5-.35.89-.81,1.15-1.39s.39-1.22.39-1.93-.13-1.35-.39-1.93-.65-1.04-1.15-1.39c-.5-.34-1.12-.52-1.85-.52s-1.33.17-1.83.52c-.5.35-.89.81-1.16,1.39-.27.58-.4,1.22-.4,1.93s.14,1.35.4,1.93c.27.58.66,1.04,1.16,1.39.5.35,1.12.52,1.83.52Z"/>
      </g>
    </g>
  </g>
</svg>